<?xml version="1.0" encoding="UTF-8"?>
<svg xmlns="http://www.w3.org/2000/svg" xmlns:xlink="http://www.w3.org/1999/xlink" xmlns:svgjs="http://svgjs.dev/svgjs" version="1.1" width="2000" height="424" viewBox="0 0 2000 424">
  <g transform="matrix(1,0,0,1,-1.2121212121213603,0.9173359782608372)">
    <svg xmlns="http://www.w3.org/2000/svg" xmlns:xlink="http://www.w3.org/1999/xlink" viewBox="0 0 396 84" data-background-color="#f6f6f7" preserveAspectRatio="xMidYMid meet" height="424" width="2000">
      <g id="tight-bounds" transform="matrix(1,0,0,1,0.24000000000003752,-0.18173637305167745)">
        <svg viewBox="0 0 395.5199999999999 84.36347274610334" height="84.36347274610334" width="395.5199999999999">
          <g>
            <svg viewBox="0 0 397.4975999999999 84.78529010983385" height="84.36347274610334" width="395.5199999999999">
              <g>
                <rect width="397.4975999999999" height="2.5968614546739937" x="0" y="46.59426823961248" fill="#2c6586" opacity="1" stroke-width="0" stroke="transparent" fill-opacity="1" class="rect-qz-0" data-fill-palette-color="primary" rx="1%" id="qz-0" data-palette-color="#2c6586"></rect>
              </g>
              <g transform="matrix(1,0,0,1,0.9887999999999693,55.98919632955871)">
                <svg viewBox="0 0 395.52 28.79609378027514" height="28.79609378027514" width="395.52">
                  <g id="textblocktransform">
                    <svg viewBox="0 0 395.52 28.79609378027514" height="28.79609378027514" width="395.52" id="textblock">
                      <g>
                        <svg viewBox="0 0 395.52 28.79609378027514" height="28.79609378027514" width="395.52">
                          <g transform="matrix(1,0,0,1,0,0)">
                            <svg width="395.52" viewBox="2.59 -36.21 503.96000000000004 36.7" height="28.79609378027514" data-palette-color="#2c6586">
                              <path d="M25.05-9.5L25.05-9.5Q25.05-4.79 21.63-2.15 18.21 0.49 12.35 0.49L12.35 0.49Q6.01 0.49 2.59-1.15L2.59-1.15 2.59-5.15Q4.79-4.22 7.37-3.69 9.96-3.15 12.5-3.15L12.5-3.15Q16.65-3.15 18.75-4.72 20.85-6.3 20.85-9.11L20.85-9.11Q20.85-10.96 20.1-12.15 19.36-13.33 17.61-14.33 15.87-15.33 12.3-16.6L12.3-16.6Q7.32-18.38 5.19-20.83 3.05-23.27 3.05-27.2L3.05-27.2Q3.05-31.32 6.15-33.76 9.25-36.21 14.36-36.21L14.36-36.21Q19.68-36.21 24.15-34.25L24.15-34.25 22.85-30.64Q18.43-32.5 14.26-32.5L14.26-32.5Q10.96-32.5 9.11-31.08 7.25-29.66 7.25-27.15L7.25-27.15Q7.25-25.29 7.93-24.11 8.62-22.92 10.24-21.94 11.87-20.95 15.21-19.75L15.21-19.75Q20.83-17.75 22.94-15.45 25.05-13.16 25.05-9.5ZM51.49 0L48.14 0 36.03-31.64 35.84-31.64Q36.18-27.88 36.18-22.71L36.18-22.71 36.18 0 32.35 0 32.35-35.69 38.6-35.69 49.9-6.25 50.1-6.25 61.5-35.69 67.7-35.69 67.7 0 63.55 0 63.55-23Q63.55-26.95 63.89-31.59L63.89-31.59 63.69-31.59 51.49 0ZM81.64 0L77.49 0 77.49-35.69 81.64-35.69 81.64 0ZM111.32 0L91.42 0 91.42-35.69 95.57-35.69 95.57-3.76 111.32-3.76 111.32 0ZM137.27-3.71L137.27 0 117.37 0 117.37-35.69 137.27-35.69 137.27-32.01 121.52-32.01 121.52-20.51 136.32-20.51 136.32-16.85 121.52-16.85 121.52-3.71 137.27-3.71ZM186.65-18.19L186.65-18.19Q186.65-9.35 181.86-4.68 177.06 0 168.05 0L168.05 0 158.16 0 158.16-35.69 169.1-35.69Q177.43-35.69 182.04-31.08 186.65-26.46 186.65-18.19ZM182.26-18.04L182.26-18.04Q182.26-25.02 178.76-28.56 175.25-32.1 168.34-32.1L168.34-32.1 162.31-32.1 162.31-3.59 167.37-3.59Q174.79-3.59 178.53-7.24 182.26-10.89 182.26-18.04ZM214.51-3.71L214.51 0 194.61 0 194.61-35.69 214.51-35.69 214.51-32.01 198.76-32.01 198.76-20.51 213.56-20.51 213.56-16.85 198.76-16.85 198.76-3.71 214.51-3.71ZM250.3-35.69L250.3 0 245.56 0 226.05-29.96 225.86-29.96Q226.25-24.68 226.25-20.29L226.25-20.29 226.25 0 222.42 0 222.42-35.69 227.1-35.69 246.56-5.86 246.76-5.86Q246.71-6.52 246.54-10.1 246.37-13.67 246.42-15.21L246.42-15.21 246.42-35.69 250.3-35.69ZM271.1-32.01L271.1 0 266.95 0 266.95-32.01 255.64-32.01 255.64-35.69 282.4-35.69 282.4-32.01 271.1-32.01ZM314.5 0L310.2 0 305.76-11.35 291.45-11.35 287.06 0 282.86 0 296.97-35.84 300.46-35.84 314.5 0ZM292.92-15.09L304.47-15.09 300.32-26.15Q299.51-28.25 298.66-31.3L298.66-31.3Q298.12-28.96 297.12-26.15L297.12-26.15 292.92-15.09ZM339.3 0L319.41 0 319.41-35.69 323.56-35.69 323.56-3.76 339.3-3.76 339.3 0ZM373.62-32.5L373.62-32.5Q367.74-32.5 364.34-28.58 360.93-24.66 360.93-17.85L360.93-17.85Q360.93-10.84 364.21-7.02 367.5-3.2 373.58-3.2L373.58-3.2Q377.31-3.2 382.1-4.54L382.1-4.54 382.1-0.9Q378.39 0.49 372.94 0.49L372.94 0.49Q365.06 0.49 360.77-4.3 356.49-9.08 356.49-17.9L356.49-17.9Q356.49-23.41 358.55-27.56 360.61-31.71 364.51-33.96 368.4-36.21 373.67-36.21L373.67-36.21Q379.29-36.21 383.49-34.16L383.49-34.16 381.73-30.59Q377.68-32.5 373.62-32.5ZM409.78 0L389.88 0 389.88-35.69 394.03-35.69 394.03-3.76 409.78-3.76 409.78 0ZM419.98 0L415.83 0 415.83-35.69 419.98-35.69 419.98 0ZM457.65-35.69L457.65 0 452.91 0 433.41-29.96 433.21-29.96Q433.6-24.68 433.6-20.29L433.6-20.29 433.6 0 429.77 0 429.77-35.69 434.46-35.69 453.92-5.86 454.11-5.86Q454.06-6.52 453.89-10.1 453.72-13.67 453.77-15.21L453.77-15.21 453.77-35.69 457.65-35.69ZM471.61 0L467.46 0 467.46-35.69 471.61-35.69 471.61 0ZM496.68-32.5L496.68-32.5Q490.8-32.5 487.39-28.58 483.99-24.66 483.99-17.85L483.99-17.85Q483.99-10.84 487.27-7.02 490.56-3.2 496.63-3.2L496.63-3.2Q500.37-3.2 505.16-4.54L505.16-4.54 505.16-0.9Q501.44 0.49 496 0.49L496 0.49Q488.11 0.49 483.83-4.3 479.54-9.08 479.54-17.9L479.54-17.9Q479.54-23.41 481.61-27.56 483.67-31.71 487.56-33.96 491.46-36.21 496.73-36.21L496.73-36.21Q502.35-36.21 506.55-34.16L506.55-34.16 504.79-30.59Q500.74-32.5 496.68-32.5Z" opacity="1" transform="matrix(1,0,0,1,0,0)" fill="#2c6586" class="wordmark-text-0" data-fill-palette-color="primary" id="text-0"></path>
                            </svg>
                          </g>
                        </svg>
                      </g>
                    </svg>
                  </g>
                </svg>
              </g>
              <g transform="matrix(1,0,0,1,178.85069919782984,0)">
                <svg viewBox="0 0 39.79620160434025 39.79620160434025" height="39.79620160434025" width="39.79620160434025">
                  <g>
                    <svg xmlns="http://www.w3.org/2000/svg" xmlns:xlink="http://www.w3.org/1999/xlink" version="1.1" x="0" y="0" viewBox="2 2 48 48" xml:space="preserve" height="39.79620160434025" width="39.79620160434025" class="icon-icon-0" data-fill-palette-color="accent" id="icon-0">
                      <g fill="#2c6586" data-fill-palette-color="accent">
                        <path d="M2 2v48h48V2H2zM36.291 42.736c-0.473 0.816-1.291 1.267-2.234 1.266-0.261 0-0.531-0.035-0.808-0.105-1.202-0.309-2.437-1.375-2.47-2.815l-0.177-7.771c-0.049-2.129-2.093-3.87-4.59-3.938-2.497 0.068-4.541 1.808-4.59 3.938L21.243 41.082c-0.027 1.22-0.921 2.312-2.224 2.716-1.253 0.389-2.523 0.006-3.233-0.978-5.954-8.255-8.451-17.594-7.635-28.553 0.209-2.806 1.217-4.703 2.994-5.637 3.292-1.731 8.382 0.475 12.073 2.631 1.757 1.025 4.026 1.019 5.781-0.016 3.622-2.139 8.625-4.328 11.877-2.629 1.778 0.929 2.786 2.83 2.996 5.651C44.765 26.246 40.756 35.029 36.291 42.736z" fill="#2c6586" data-fill-palette-color="accent"></path>
                      </g>
                    </svg>
                  </g>
                </svg>
              </g>
              <g></g>
            </svg>
          </g>
          <defs></defs>
        </svg>
        <rect width="395.5199999999999" height="84.36347274610334" fill="none" stroke="none" visibility="hidden"></rect>
      </g>
    </svg>
  </g>
</svg>
