<?xml version="1.0" encoding="UTF-8"?>
<!-- Generator: Adobe Illustrator 28.0.0, SVG Export Plug-In . SVG Version: 6.00 Build 0)  -->
<svg xmlns:svgjs="http://svgjs.dev/svgjs" xmlns="http://www.w3.org/2000/svg" xmlns:xlink="http://www.w3.org/1999/xlink" version="1.1" id="icon-0" x="0px" y="0px" viewBox="0 0 128 128" style="enable-background:new 0 0 128 128;" xml:space="preserve">
<style type="text/css">
	.st0{fill:#FFFFFF;}
	.st1{fill:#2C6586;}
	.st2{display:none;fill:none;}
</style>
<g transform="matrix(0.8046875,0,0,0.8046875,12.760752631578946,12.760752631578946)">
	<rect x="17.6" y="18" class="st0" width="92.3" height="92.3"></rect>
	<g id="tight-bounds" transform="matrix(1,0,0,1,-0.24049999999999727,-0.24049999999999727)">
		<g>
			<g>
				<g id="textblocktransform">
					<g>
						<g>
							<g>
								<g>
									<path class="st1" d="M-0.1-0.1v128.6h128.6V-0.1H-0.1z M91.8,109.1c-1.3,2.2-3.5,3.4-6,3.4c-0.7,0-1.4-0.1-2.2-0.3           c-3.2-0.8-6.5-3.7-6.6-7.5l-0.5-20.8c-0.1-5.7-5.6-10.4-12.3-10.6c-6.7,0.2-12.2,4.8-12.3,10.6l-0.5,20.8           c-0.1,3.3-2.5,6.2-6,7.3c-3.4,1-6.8,0-8.7-2.6c-16-22.1-22.7-47.2-20.5-76.5c0.6-7.5,3.3-12.6,8-15.1           c8.8-4.6,22.5,1.3,32.4,7.1c4.7,2.7,10.8,2.7,15.5,0c9.7-5.7,23.1-11.6,31.8-7c4.8,2.5,7.5,7.6,8,15.1           C114.5,64.9,103.8,88.4,91.8,109.1z"></path>
								</g>
							</g>
						</g>
					</g>
				</g>
			</g>
		</g>
		<rect x="-0.1" y="-0.1" class="st2" width="128.6" height="128.6"></rect>
	</g>
</g>
</svg>
