<?xml version="1.0" encoding="UTF-8"?>
<!-- Generator: Adobe Illustrator 28.0.0, SVG Export Plug-In . SVG Version: 6.00 Build 0)  -->
<svg xmlns="http://www.w3.org/2000/svg" xmlns:xlink="http://www.w3.org/1999/xlink" version="1.1" id="レイヤー_1" x="0px" y="0px" viewBox="0 0 64 64" style="enable-background:new 0 0 64 64;" xml:space="preserve">
<style type="text/css">
	.st0{fill:#2C6586;}
</style>
<g id="tooth_insurance">
	<path class="st0" d="M11.3,12.5c-0.2,0-0.5-0.1-0.6-0.2c-0.4-0.4-0.5-1-0.1-1.4c0,0,0,0,0,0c0.1-0.1,0.2-0.2,0.3-0.3   c0.4-0.4,1.1-0.3,1.4,0.1s0.3,1.1-0.1,1.4l0,0l-0.1,0.1C11.9,12.4,11.6,12.5,11.3,12.5z"></path>
	<path class="st0" d="M41.9,58c-2.8,0-5.2-1.9-5.8-4.6l-2.2-8.8c-0.3-1.1-1.4-1.7-2.4-1.5c-0.7,0.2-1.3,0.7-1.5,1.5l-2.2,8.8   c-0.3,1.3-1.1,2.5-2.1,3.3c-2.6,2-6.4,1.6-8.4-1c-0.6-0.7-1-1.6-1.2-2.5l-1-4.9c-0.5-2.5-1-5.1-1.5-7.4c-0.6-3.2-2-6.2-4-8.8   c-2.7-3.2-4-7.4-3.6-11.6c0.2-2.2,0.9-4.4,2-6.4c0.3-0.5,0.9-0.6,1.4-0.4s0.6,0.9,0.4,1.4c-1,1.7-1.6,3.6-1.7,5.6   c-0.3,3.7,0.8,7.3,3.1,10.1c2.3,2.8,3.8,6.1,4.4,9.7c0.5,2.3,1,4.9,1.5,7.4l1,4.9c0.4,1.8,2,3.1,3.9,3.2c0.9,0,1.8-0.3,2.5-0.8   c0.7-0.5,1.2-1.3,1.5-2.2l2.2-8.8c0.5-2.1,2.7-3.4,4.9-2.9c1.4,0.4,2.5,1.5,2.9,2.9L38,53c0.5,2.1,2.7,3.5,4.8,2.9   c0.3-0.1,0.7-0.2,1-0.4c-3.1-2.7-4.9-6.6-4.8-10.8V42c0-0.6,0.4-1,1-1s1,0.4,1,1v2.8c-0.1,3.9,1.8,7.6,5,9.9   c0.2,0.2,0.4,0.4,0.4,0.7c0,0.3-0.1,0.6-0.3,0.8c-0.2,0.2-0.3,0.3-0.5,0.5C44.6,57.5,43.3,58,41.9,58z"></path>
	<path class="st0" d="M40,39c-0.6,0-1-0.4-1-1v-2c0-0.4,0.3-0.9,0.7-1l9-3c0.2-0.1,0.4-0.1,0.6,0l2.1,0.7c0.4-0.7,0.9-1.3,1.4-1.9   c2.3-2.8,3.5-6.5,3.1-10.1C55.3,13,48.5,7.3,40.8,8c-1.1,0.1-2.2,0.3-3.3,0.7c-3.5,1.2-7.4,1.2-10.9,0c-1.9-0.6-3.8-0.9-5.8-0.7   c-2,0.2-3.9,0.8-5.6,1.7c-0.5,0.3-1.1,0.1-1.4-0.4S13.7,8.3,14.2,8c2-1.1,4.1-1.8,6.4-2c2.2-0.2,4.5,0.1,6.6,0.8   c3.1,1.1,6.5,1.1,9.6,0c8.4-2.9,17.5,1.6,20.3,10c1.8,5.3,0.7,11.1-2.8,15.3c-0.6,0.7-1.1,1.5-1.6,2.3c-0.2,0.4-0.7,0.6-1.2,0.5   L49,34l-8,2.7V38C41,38.6,40.6,39,40,39z"></path>
	<path class="st0" d="M32,16c-4-0.1-8-1.2-11.5-3.1c-0.5-0.2-0.8-0.8-0.6-1.3c0.2-0.5,0.8-0.8,1.3-0.6c0.1,0,0.2,0.1,0.3,0.2   c3.2,1.8,6.8,2.8,10.5,2.8c3.7-0.1,7.3-1.1,10.5-2.9c0.4-0.4,1.1-0.3,1.4,0.1s0.3,1.1-0.1,1.4c-0.1,0.1-0.2,0.1-0.3,0.2   C40,14.8,36,15.9,32,16z"></path>
	<path class="st0" d="M49,58h-0.2c-1.4-0.3-2.7-0.9-3.8-1.7c-3.8-2.6-6-7-5.9-11.5V42c0-0.6,0.4-1,1-1s1,0.4,1,1v2.8   c-0.1,3.9,1.8,7.6,5,9.9c0.9,0.6,1.9,1.1,3,1.3c4.7-1.2,8-5.8,8-11.2v-8.1L49,34l-8,2.7V38c0,0.6-0.4,1-1,1s-1-0.4-1-1v-2   c0-0.4,0.3-0.9,0.7-1l9-3c0.2-0.1,0.4-0.1,0.6,0l9,3c0.4,0.1,0.7,0.6,0.7,1v8.8c0,6.4-4.1,11.9-9.8,13.2L49,58z"></path>
	<path class="st0" d="M48,48c-0.3,0-0.5-0.1-0.7-0.3l-2-2c-0.4-0.4-0.4-1,0-1.4s1-0.4,1.4,0l1.3,1.3l4.3-4.3c0.4-0.4,1-0.4,1.4,0   s0.4,1,0,1.4l-5,5C48.5,47.9,48.3,48,48,48z"></path>
</g>
</svg>
