<?xml version="1.0" encoding="UTF-8"?>
<!-- Generator: Adobe Illustrator 28.0.0, SVG Export Plug-In . SVG Version: 6.00 Build 0)  -->
<svg xmlns="http://www.w3.org/2000/svg" xmlns:xlink="http://www.w3.org/1999/xlink" version="1.1" id="レイヤー_1" x="0px" y="0px" viewBox="0 0 64 64" style="enable-background:new 0 0 64 64;" xml:space="preserve">
<style type="text/css">
	.st0{fill:#2C6586;}
</style>
<g id="Tooth">
	<path class="st0" d="M13.2,37.2L13.2,37.2c-0.4,0-0.8-0.2-0.9-0.6c-0.7-1.6-1.6-3.1-2.6-4.4c-2.7-3.2-4-7.4-3.6-11.6   c0.8-8.8,8.6-15.3,17.4-14.5c1.3,0.1,2.5,0.4,3.7,0.8c3.1,1.1,6.5,1.1,9.6,0c2.1-0.7,4.4-1,6.6-0.8c4.8,0.5,9.2,3.1,11.9,7.2   c0.3,0.4,0.3,1.1-0.2,1.4c-0.4,0.3-1.1,0.3-1.4-0.2c0,0-0.1-0.1-0.1-0.2c-2.4-3.5-6.2-5.8-10.4-6.2c-2-0.2-3.9,0.1-5.8,0.7   c-3.5,1.2-7.4,1.2-10.9,0c-7.3-2.5-15.3,1.4-17.8,8.8c-1.6,4.6-0.6,9.6,2.4,13.4c1.2,1.5,2.2,3.1,2.9,4.8c0.1,0.1,0.1,0.3,0.1,0.5   C14.2,36.7,13.8,37.2,13.2,37.2z"></path>
	<path class="st0" d="M14.5,41.1c-0.5,0-0.9-0.3-1-0.8v-0.1c-0.1-0.5,0.2-1.1,0.7-1.2c0,0,0,0,0,0c0.5-0.1,1,0.2,1.2,0.7v0.1   c0.1,0.5-0.2,1-0.7,1.2L14.5,41.1z"></path>
	<path class="st0" d="M41.9,58c-2.8,0-5.2-1.9-5.8-4.6l-2.2-8.8c-0.3-1.1-1.4-1.7-2.4-1.5c-0.7,0.2-1.3,0.7-1.5,1.5l-2.2,8.8   c-0.3,1.3-1.1,2.5-2.1,3.3c-2.6,2-6.4,1.6-8.4-1c-0.6-0.7-1-1.6-1.2-2.5c-0.5-2.5-1.2-5.9-1.9-9c-0.1-0.6,0.2-1.1,0.8-1.2   c0.6-0.1,1.1,0.2,1.2,0.8l0,0c0.6,3.2,1.3,6.5,1.9,9c0.4,1.8,2,3.2,3.9,3.2c0.9,0,1.8-0.3,2.5-0.8c0.7-0.5,1.2-1.3,1.5-2.2l2.2-8.8   c0.5-2.1,2.7-3.4,4.9-2.9c1.4,0.4,2.5,1.5,2.9,2.9L38,53c0.5,2.1,2.7,3.5,4.8,2.9c1.5-0.4,2.6-1.6,3-3.1l1-4.8   c0.5-2.5,1.1-5.1,1.5-7.5c0.7-3.5,2.2-6.9,4.4-9.7c2.3-2.8,3.5-6.5,3.1-10.1c-0.1-1-0.3-2.1-0.6-3.1c-0.2-0.5,0.1-1.1,0.6-1.3   c0.5-0.2,1.1,0.1,1.3,0.6c0,0,0,0,0,0.1c0.4,1.1,0.6,2.3,0.7,3.5c0.4,4.2-0.9,8.4-3.6,11.6c-2,2.6-3.4,5.6-4,8.8   c-0.5,2.3-1,5-1.5,7.5l-1,4.8c-0.3,1.4-1,2.6-2.1,3.4C44.6,57.6,43.3,58,41.9,58z"></path>
	<path class="st0" d="M23.2,14.1c-0.1,0-0.3,0-0.4-0.1c-0.8-0.3-1.6-0.7-2.3-1.2C20,12.6,19.8,12,20,11.5c0.2-0.5,0.8-0.7,1.3-0.5   c0.1,0,0.1,0.1,0.2,0.1c0.7,0.4,1.4,0.7,2.1,1c0.5,0.2,0.7,0.8,0.5,1.3C23.9,13.8,23.6,14.1,23.2,14.1L23.2,14.1z"></path>
	<path class="st0" d="M32,16c-1.8,0-3.5-0.2-5.3-0.7c-0.5-0.1-0.9-0.6-0.8-1.2c0.1-0.5,0.6-0.9,1.2-0.8c0,0,0.1,0,0.1,0   c1.6,0.4,3.2,0.6,4.8,0.6c3.7-0.1,7.3-1.1,10.5-2.9c0.4-0.4,1.1-0.3,1.4,0.1s0.3,1.1-0.1,1.4c-0.1,0.1-0.2,0.1-0.3,0.2   C40,14.8,36,15.9,32,16z"></path>
</g>
</svg>
