<?xml version="1.0" encoding="UTF-8"?>
<!-- Generator: Adobe Illustrator 28.0.0, SVG Export Plug-In . SVG Version: 6.00 Build 0)  -->
<svg xmlns="http://www.w3.org/2000/svg" xmlns:xlink="http://www.w3.org/1999/xlink" version="1.1" id="レイヤー_1" x="0px" y="0px" viewBox="0 0 64 64" style="enable-background:new 0 0 64 64;" xml:space="preserve">
<style type="text/css">
	.st0{fill:#2C6586;}
</style>
<g id="whitening">
	<path class="st0" d="M11.3,34.1c-0.5,0-0.9-0.3-1-0.8v-0.1c-0.1-0.6,0.2-1.1,0.8-1.2c0.6-0.1,1.1,0.2,1.2,0.8v0.2   c0.1,0.5-0.2,1.1-0.8,1.2L11.3,34.1z"></path>
	<path class="st0" d="M23.7,61c-2.5,0-4.6-1.7-5.1-4.2c-0.6-2.8-1.4-7-2.1-10.3c-0.5-2.7-1.7-5.2-3.4-7.3c-0.5-0.6-0.9-1.2-1.3-1.8   c-0.3-0.5-0.1-1.1,0.4-1.4s1.1-0.1,1.4,0.4c0.3,0.6,0.7,1.1,1.1,1.6c1.9,2.4,3.2,5.2,3.8,8.2c0.7,3.3,1.5,7.5,2.1,10.3   c0.4,1.7,2.1,2.8,3.8,2.5c0.5-0.1,0.9-0.3,1.3-0.6c0.6-0.4,1-1.1,1.1-1.8l1.8-7.4c0.5-1.9,2.4-3,4.3-2.6c1.3,0.3,2.3,1.3,2.6,2.6   l0.4,1.6c0.1,0.5-0.2,1.1-0.8,1.2c-0.5,0.1-1-0.2-1.2-0.7l-0.4-1.6c-0.1-0.8-0.9-1.4-1.7-1.3c-0.6,0.1-1.1,0.6-1.3,1.3L28.7,57   C28.2,59.3,26.1,61,23.7,61z"></path>
	<path class="st0" d="M40.3,61c-2.4,0-4.5-1.7-5-4l-0.5-2c-0.2-0.5,0.2-1.1,0.7-1.2c0.5-0.2,1.1,0.2,1.2,0.7c0,0,0,0,0,0.1l0.5,2   c0.4,1.7,2.2,2.8,3.9,2.3c1.2-0.3,2.1-1.2,2.4-2.5c0.6-2.8,1.4-7,2.1-10.3c0.6-3,1.9-5.7,3.8-8.1c1.9-2.3,2.9-5.2,2.6-8.2   c-0.3,0.7-0.5,1.5-0.5,2.2c0,0.6-0.4,1-1,1s-1-0.4-1-1c0-3-2.5-5.5-5.5-5.5c-0.6,0-1-0.4-1-1s0.4-1,1-1c1.5,0,2.9-0.6,3.9-1.6   c0.2-0.2,0.4-0.4,0.5-0.6c-3.1-3-7.7-4-11.8-2.6c-3,1-6.3,1-9.3,0c-1.5-0.5-3.2-0.7-4.8-0.6c-5.4,0.5-9.8,4.7-10.5,10.1   C12,29.7,11.5,30.1,11,30s-0.9-0.6-0.9-1.1C10.9,22.5,16,17.6,22.4,17c1.9-0.2,3.8,0.1,5.6,0.7c2.6,0.9,5.4,0.9,8,0   c5.1-1.8,10.8-0.3,14.5,3.7c0.3,0.3,0.3,0.8,0.1,1.2c-0.3,0.6-0.8,1.2-1.3,1.7c-0.5,0.5-1,0.9-1.6,1.2c1.1,0.7,2.1,1.6,2.8,2.8   c0.3-0.6,0.7-1.1,1.2-1.6c0.1-0.1,0.1-0.1,0.2-0.2c0.3-0.2,0.6-0.3,0.9-0.2c0.3,0.1,0.6,0.4,0.7,0.7c1.2,4.3,0.2,8.8-2.6,12.2   c-1.7,2.1-2.8,4.6-3.3,7.3c-0.7,3.3-1.6,7.5-2.1,10.3C44.9,59.3,42.8,61,40.3,61z"></path>
	<path class="st0" d="M32,25.7c-3.4-0.1-6.8-1-9.8-2.7c-0.4-0.4-0.5-1-0.1-1.4c0.3-0.3,0.7-0.4,1.1-0.3c2.7,1.5,5.7,2.3,8.8,2.4   c3.1-0.1,6-0.9,8.7-2.4c0.4-0.4,1.1-0.3,1.4,0.1s0.3,1.1-0.1,1.4C41.9,23,41.8,23,41.7,23C38.8,24.7,35.4,25.6,32,25.7z"></path>
	<path class="st0" d="M6,33H3c-0.6,0-1-0.4-1-1s0.4-1,1-1h3c0.6,0,1,0.4,1,1S6.6,33,6,33z"></path>
	<path class="st0" d="M61,33h-3c-0.6,0-1-0.4-1-1s0.4-1,1-1h3c0.6,0,1,0.4,1,1S61.6,33,61,33z"></path>
	<path class="st0" d="M32,7c-0.6,0-1-0.4-1-1V3c0-0.6,0.4-1,1-1s1,0.4,1,1v3C33,6.6,32.6,7,32,7z"></path>
	<path class="st0" d="M6.9,47.5c-0.6,0-1-0.4-1-1c0-0.4,0.2-0.7,0.5-0.9L9,44.1c0.5-0.3,1.1-0.1,1.4,0.4c0.3,0.5,0.1,1.1-0.4,1.4   l-2.6,1.5C7.3,47.5,7.1,47.5,6.9,47.5z"></path>
	<path class="st0" d="M54.5,20c-0.6,0-1-0.4-1-1c0-0.4,0.2-0.7,0.5-0.9l2.6-1.5c0.5-0.3,1.1-0.1,1.4,0.4c0.3,0.5,0.1,1.1-0.4,1.4   L55,19.9C54.9,20,54.7,20,54.5,20z"></path>
	<path class="st0" d="M19,10.5c-0.4,0-0.7-0.2-0.9-0.5l-1.5-2.6C16.4,6.9,16.5,6.3,17,6c0.5-0.3,1.1-0.1,1.4,0.4L19.9,9   c0.3,0.5,0.1,1.1-0.4,1.4C19.4,10.5,19.2,10.5,19,10.5L19,10.5z"></path>
	<path class="st0" d="M45,10.5c-0.6,0-1-0.5-1-1c0-0.2,0-0.3,0.1-0.5l1.5-2.6C45.9,5.9,46.5,5.8,47,6c0.5,0.3,0.6,0.9,0.4,1.4   L45.9,10C45.7,10.3,45.4,10.5,45,10.5z"></path>
	<path class="st0" d="M9.5,20c-0.2,0-0.3,0-0.5-0.1l-2.6-1.5C5.9,18.1,5.7,17.5,6,17c0.3-0.5,0.9-0.6,1.4-0.4l2.6,1.5   c0.5,0.3,0.6,0.9,0.4,1.4C10.2,19.8,9.9,20,9.5,20z"></path>
	<path class="st0" d="M57.1,47.5c-0.2,0-0.3,0-0.5-0.1L54,45.9c-0.5-0.3-0.6-0.9-0.4-1.4c0.3-0.5,0.9-0.6,1.4-0.4l2.6,1.5   c0.5,0.3,0.6,0.9,0.4,1.4C57.8,47.3,57.5,47.5,57.1,47.5L57.1,47.5z"></path>
	<path class="st0" d="M6,33H3c-0.6,0-1-0.4-1-1s0.4-1,1-1h3c0.6,0,1,0.4,1,1S6.6,33,6,33z"></path>
	<path class="st0" d="M61,33h-3c-0.6,0-1-0.4-1-1s0.4-1,1-1h3c0.6,0,1,0.4,1,1S61.6,33,61,33z"></path>
	<path class="st0" d="M32,7c-0.6,0-1-0.4-1-1V3c0-0.6,0.4-1,1-1s1,0.4,1,1v3C33,6.6,32.6,7,32,7z"></path>
	<path class="st0" d="M6.9,47.5c-0.6,0-1-0.4-1-1c0-0.4,0.2-0.7,0.5-0.9L9,44.1c0.5-0.3,1.1-0.1,1.4,0.4c0.3,0.5,0.1,1.1-0.4,1.4   l-2.6,1.5C7.3,47.5,7.1,47.5,6.9,47.5z"></path>
	<path class="st0" d="M54.5,20c-0.6,0-1-0.4-1-1c0-0.4,0.2-0.7,0.5-0.9l2.6-1.5c0.5-0.3,1.1-0.1,1.4,0.4c0.3,0.5,0.1,1.1-0.4,1.4   L55,19.9C54.9,20,54.7,20,54.5,20z"></path>
	<path class="st0" d="M19,10.5c-0.4,0-0.7-0.2-0.9-0.5l-1.5-2.6C16.4,6.9,16.5,6.3,17,6c0.5-0.3,1.1-0.1,1.4,0.4L19.9,9   c0.3,0.5,0.1,1.1-0.4,1.4C19.4,10.5,19.2,10.5,19,10.5L19,10.5z"></path>
	<path class="st0" d="M45,10.5c-0.6,0-1-0.5-1-1c0-0.2,0-0.3,0.1-0.5l1.5-2.6C45.9,5.9,46.5,5.8,47,6c0.5,0.3,0.6,0.9,0.4,1.4   L45.9,10C45.7,10.3,45.4,10.5,45,10.5z"></path>
	<path class="st0" d="M9.5,20c-0.2,0-0.3,0-0.5-0.1l-2.6-1.5C5.9,18.1,5.7,17.5,6,17c0.3-0.5,0.9-0.6,1.4-0.4l2.6,1.5   c0.5,0.3,0.6,0.9,0.4,1.4C10.2,19.8,9.9,20,9.5,20z"></path>
	<path class="st0" d="M57.1,47.5c-0.2,0-0.3,0-0.5-0.1L54,45.9c-0.5-0.3-0.6-0.9-0.4-1.4c0.3-0.5,0.9-0.6,1.4-0.4l2.6,1.5   c0.5,0.3,0.6,0.9,0.4,1.4C57.8,47.3,57.5,47.5,57.1,47.5L57.1,47.5z"></path>
	<path class="st0" d="M50.5,33c-0.6,0-1-0.4-1-1c0-3-2.5-5.5-5.5-5.5c-0.6,0-1-0.4-1-1s0.4-1,1-1c1.5,0,2.9-0.6,3.9-1.6   c0.4-0.4,0.7-0.8,0.9-1.2c0.4-0.8,0.7-1.7,0.7-2.6c0-0.6,0.4-1,1-1s1,0.4,1,1c0,3,2.4,5.5,5.5,5.5c0,0,0,0,0,0c0.6,0,1,0.4,1,1   s-0.4,1-1,1c-1.4,0-2.7,0.5-3.7,1.4L53.2,28c-1.1,1-1.7,2.5-1.7,4C51.5,32.6,51.1,33,50.5,33z M47.7,25.5c1.1,0.7,2.1,1.6,2.8,2.8   c0.3-0.6,0.7-1.1,1.2-1.6l0.1-0.1l0,0c0.4-0.4,0.9-0.7,1.4-1c-1.1-0.7-2.1-1.6-2.8-2.8c-0.3,0.6-0.7,1.1-1.2,1.6   C48.8,24.8,48.3,25.2,47.7,25.5z"></path>
</g>
</svg>
